<svg width="110" height="110" viewBox="0 0 110 110" fill="none" xmlns="http://www.w3.org/2000/svg">
<circle cx="55" cy="55" r="55" fill="#2F54C6"/>
<path d="M28.115 55.375C28.115 49.9857 29.149 45.74 31.217 42.638C33.3163 39.536 36.6847 37.985 41.322 37.985C45.9593 37.985 49.312 39.536 51.38 42.638C53.4793 45.74 54.529 49.9857 54.529 55.375C54.529 60.827 53.4793 65.104 51.38 68.206C49.312 71.308 45.9593 72.859 41.322 72.859C36.6847 72.859 33.3163 71.308 31.217 68.206C29.149 65.104 28.115 60.827 28.115 55.375ZM46.633 55.375C46.633 52.2103 46.2883 49.782 45.599 48.09C44.9097 46.3667 43.484 45.505 41.322 45.505C39.16 45.505 37.7343 46.3667 37.045 48.09C36.3557 49.782 36.011 52.2103 36.011 55.375C36.011 57.5057 36.1363 59.276 36.387 60.686C36.6377 62.0647 37.139 63.1927 37.891 64.07C38.6743 64.916 39.818 65.339 41.322 65.339C42.826 65.339 43.954 64.916 44.706 64.07C45.4893 63.1927 46.0063 62.0647 46.257 60.686C46.5077 59.276 46.633 57.5057 46.633 55.375ZM59.3392 46.163V38.69H72.3582V73H63.9922V46.163H59.3392Z" fill="white"/>
</svg>
