<svg width="110" height="110" viewBox="0 0 110 110" fill="none" xmlns="http://www.w3.org/2000/svg">
<circle cx="55" cy="55" r="55" fill="#FFB900"/>
<path d="M25.115 54.375C25.115 48.9857 26.149 44.74 28.217 41.638C30.3163 38.536 33.6847 36.985 38.322 36.985C42.9593 36.985 46.312 38.536 48.38 41.638C50.4793 44.74 51.529 48.9857 51.529 54.375C51.529 59.827 50.4793 64.104 48.38 67.206C46.312 70.308 42.9593 71.859 38.322 71.859C33.6847 71.859 30.3163 70.308 28.217 67.206C26.149 64.104 25.115 59.827 25.115 54.375ZM43.633 54.375C43.633 51.2103 43.2883 48.782 42.599 47.09C41.9097 45.3667 40.484 44.505 38.322 44.505C36.16 44.505 34.7343 45.3667 34.045 47.09C33.3557 48.782 33.011 51.2103 33.011 54.375C33.011 56.5057 33.1363 58.276 33.387 59.686C33.6377 61.0647 34.139 62.1927 34.891 63.07C35.6743 63.916 36.818 64.339 38.322 64.339C39.826 64.339 40.954 63.916 41.706 63.07C42.4893 62.1927 43.0063 61.0647 43.257 59.686C43.5077 58.276 43.633 56.5057 43.633 54.375ZM56.9032 65.561C57.9685 64.715 58.4542 64.3233 58.3602 64.386C61.4308 61.848 63.8435 59.7643 65.5982 58.135C67.3842 56.5057 68.8882 54.798 70.1102 53.012C71.3322 51.226 71.9432 49.487 71.9432 47.795C71.9432 46.5103 71.6455 45.5077 71.0502 44.787C70.4548 44.0663 69.5618 43.706 68.3712 43.706C67.1805 43.706 66.2405 44.1603 65.5512 45.069C64.8932 45.9463 64.5642 47.1997 64.5642 48.829H56.8092C56.8718 46.1657 57.4358 43.941 58.5012 42.155C59.5978 40.369 61.0235 39.053 62.7782 38.207C64.5642 37.361 66.5382 36.938 68.7002 36.938C72.4288 36.938 75.2332 37.8937 77.1132 39.805C79.0245 41.7163 79.9802 44.2073 79.9802 47.278C79.9802 50.6307 78.8365 53.7483 76.5492 56.631C74.2618 59.4823 71.3478 62.271 67.8072 64.997H80.4972V71.53H56.9032V65.561Z" fill="white"/>
</svg>
