<svg width="80" height="80" viewBox="0 0 80 80" fill="none" xmlns="http://www.w3.org/2000/svg">
<circle cx="40" cy="40" r="39.5" stroke="#C4C4C4"/>
<path d="M39.25 62.5083H37.612L31.024 52.5183V62.5083H29.386V49.9443H31.024L37.612 59.9163V49.9443H39.25V62.5083ZM46.0023 62.6703C45.0783 62.6703 44.2383 62.4603 43.4823 62.0403C42.7383 61.6203 42.1503 61.0263 41.7183 60.2583C41.2983 59.4783 41.0883 58.5783 41.0883 57.5583C41.0883 56.5503 41.3043 55.6623 41.7363 54.8943C42.1803 54.1143 42.7803 53.5203 43.5363 53.1123C44.2923 52.6923 45.1383 52.4823 46.0743 52.4823C47.0103 52.4823 47.8563 52.6923 48.6123 53.1123C49.3683 53.5203 49.9623 54.1083 50.3943 54.8763C50.8383 55.6443 51.0603 56.5383 51.0603 57.5583C51.0603 58.5783 50.8323 59.4783 50.3763 60.2583C49.9323 61.0263 49.3263 61.6203 48.5583 62.0403C47.7903 62.4603 46.9383 62.6703 46.0023 62.6703ZM46.0023 61.2303C46.5903 61.2303 47.1423 61.0923 47.6583 60.8163C48.1743 60.5403 48.5883 60.1263 48.9003 59.5743C49.2243 59.0223 49.3863 58.3503 49.3863 57.5583C49.3863 56.7663 49.2303 56.0943 48.9183 55.5423C48.6063 54.9903 48.1983 54.5823 47.6943 54.3183C47.1903 54.0423 46.6443 53.9043 46.0563 53.9043C45.4563 53.9043 44.9043 54.0423 44.4003 54.3183C43.9083 54.5823 43.5123 54.9903 43.2123 55.5423C42.9123 56.0943 42.7623 56.7663 42.7623 57.5583C42.7623 58.3623 42.9063 59.0403 43.1943 59.5923C43.4943 60.1443 43.8903 60.5583 44.3823 60.8343C44.8743 61.0983 45.4143 61.2303 46.0023 61.2303Z" fill="#535353"/>
<path d="M48.8571 30.6722H44.1429V35.2296C44.1422 35.8338 43.8937 36.413 43.4518 36.8402C43.0099 37.2674 42.4107 37.5077 41.7857 37.5083H40.1098C39.732 37.5068 39.3673 37.3743 39.0818 37.135C38.7964 36.8957 38.6091 36.5655 38.5541 36.2041L37.8901 31.7098L35.0796 27.6339H30V17H46.5C47.9582 17.0016 49.3562 17.5623 50.3872 18.5591C51.4183 19.5559 51.9983 20.9073 52 22.317V27.6339C51.999 28.4394 51.6675 29.2116 51.0783 29.7812C50.4892 30.3508 49.6904 30.6712 48.8571 30.6722ZM34.7143 18.5191H31.5714V26.1148H34.7143V18.5191ZM50.4286 22.317C50.4273 21.3101 50.013 20.3448 49.2765 19.6328C48.5401 18.9209 47.5415 18.5203 46.5 18.5191H36.2857V26.6442L39.3956 31.1538L40.1106 35.9892H41.7857C41.9941 35.9892 42.1939 35.9091 42.3413 35.7667C42.4886 35.6242 42.5714 35.4311 42.5714 35.2296V29.1531H48.8571C49.2738 29.1527 49.6732 28.9925 49.9679 28.7077C50.2625 28.4229 50.4282 28.0367 50.4286 27.6339V22.317Z" fill="#535353"/>
</svg>
