<svg width="80" height="80" viewBox="0 0 80 80" fill="none" xmlns="http://www.w3.org/2000/svg">
<circle cx="40" cy="40" r="39.5" stroke="#C4C4C4"/>
<path d="M47.8571 20.8363H43.1429V16.2788C43.1422 15.6746 42.8937 15.0953 42.4518 14.6681C42.0099 14.2409 41.4107 14.0006 40.7857 14H39.1098C38.732 14.0016 38.3673 14.134 38.0818 14.3733C37.7964 14.6126 37.6091 14.9429 37.5541 15.3042L36.8901 19.7987L34.0796 23.8746H29V34.5088H45.5C46.9582 34.5072 48.3562 33.9465 49.3872 32.9497C50.4183 31.9529 50.9983 30.6014 51 29.1917V23.8746C50.999 23.0691 50.6675 22.2969 50.0783 21.7273C49.4892 21.1577 48.6904 20.8373 47.8571 20.8363ZM33.7143 32.9896H30.5714V25.3938H33.7143V32.9896ZM49.4286 29.1917C49.4273 30.1986 49.013 31.1639 48.2765 31.8759C47.5401 32.5879 46.5415 32.9884 45.5 32.9896H35.2857V24.8643L38.3956 20.3547L39.1106 15.5192H40.7857C40.9941 15.5192 41.1939 15.5992 41.3413 15.7416C41.4886 15.8841 41.5714 16.0773 41.5714 16.2788V22.3554H47.8571C48.2738 22.3558 48.6732 22.516 48.9679 22.8008C49.2625 23.0856 49.4282 23.4718 49.4286 23.8746V29.1917Z" fill="#535353"/>
<path d="M32.17 46.9628L28.084 54.7748V59.5088H26.446V54.7748L22.342 46.9628H24.16L27.256 53.3168L30.352 46.9628H32.17ZM42.5557 54.1988C42.5557 54.5108 42.5377 54.8408 42.5017 55.1888H34.6177C34.6777 56.1608 35.0077 56.9228 35.6077 57.4748C36.2197 58.0148 36.9577 58.2848 37.8217 58.2848C38.5297 58.2848 39.1177 58.1228 39.5857 57.7988C40.0657 57.4628 40.4017 57.0188 40.5937 56.4668H42.3577C42.0937 57.4148 41.5657 58.1888 40.7737 58.7888C39.9817 59.3768 38.9977 59.6708 37.8217 59.6708C36.8857 59.6708 36.0457 59.4608 35.3017 59.0408C34.5697 58.6208 33.9937 58.0268 33.5737 57.2588C33.1537 56.4788 32.9437 55.5788 32.9437 54.5588C32.9437 53.5388 33.1477 52.6448 33.5557 51.8768C33.9637 51.1088 34.5337 50.5208 35.2657 50.1128C36.0097 49.6928 36.8617 49.4828 37.8217 49.4828C38.7577 49.4828 39.5857 49.6868 40.3057 50.0948C41.0257 50.5028 41.5777 51.0668 41.9617 51.7868C42.3577 52.4948 42.5557 53.2988 42.5557 54.1988ZM40.8637 53.8568C40.8637 53.2328 40.7257 52.6988 40.4497 52.2548C40.1737 51.7988 39.7957 51.4568 39.3157 51.2288C38.8477 50.9888 38.3257 50.8688 37.7497 50.8688C36.9217 50.8688 36.2137 51.1328 35.6257 51.6608C35.0497 52.1888 34.7197 52.9208 34.6357 53.8568H40.8637ZM47.8678 59.6708C47.1118 59.6708 46.4338 59.5448 45.8338 59.2928C45.2338 59.0288 44.7598 58.6688 44.4118 58.2128C44.0638 57.7448 43.8718 57.2108 43.8358 56.6108H45.5278C45.5758 57.1028 45.8038 57.5048 46.2118 57.8168C46.6318 58.1288 47.1778 58.2848 47.8498 58.2848C48.4738 58.2848 48.9658 58.1468 49.3258 57.8708C49.6858 57.5948 49.8658 57.2468 49.8658 56.8268C49.8658 56.3948 49.6738 56.0768 49.2898 55.8728C48.9058 55.6568 48.3118 55.4468 47.5078 55.2428C46.7758 55.0508 46.1758 54.8588 45.7078 54.6668C45.2518 54.4628 44.8558 54.1688 44.5198 53.7848C44.1958 53.3888 44.0338 52.8728 44.0338 52.2368C44.0338 51.7328 44.1838 51.2708 44.4838 50.8508C44.7838 50.4308 45.2098 50.1008 45.7618 49.8608C46.3138 49.6088 46.9438 49.4828 47.6518 49.4828C48.7438 49.4828 49.6258 49.7588 50.2978 50.3108C50.9698 50.8628 51.3298 51.6188 51.3778 52.5788H49.7398C49.7038 52.0628 49.4938 51.6488 49.1098 51.3368C48.7378 51.0248 48.2338 50.8688 47.5978 50.8688C47.0098 50.8688 46.5418 50.9948 46.1938 51.2468C45.8458 51.4988 45.6718 51.8288 45.6718 52.2368C45.6718 52.5608 45.7738 52.8308 45.9778 53.0468C46.1938 53.2508 46.4578 53.4188 46.7698 53.5508C47.0938 53.6708 47.5378 53.8088 48.1018 53.9648C48.8098 54.1568 49.3858 54.3488 49.8298 54.5408C50.2738 54.7208 50.6518 54.9968 50.9638 55.3688C51.2878 55.7408 51.4558 56.2268 51.4678 56.8268C51.4678 57.3668 51.3178 57.8528 51.0178 58.2848C50.7178 58.7168 50.2918 59.0588 49.7398 59.3108C49.1998 59.5508 48.5758 59.6708 47.8678 59.6708Z" fill="#535353"/>
</svg>
