<svg width="40" height="40" viewBox="0 0 40 40" fill="none" xmlns="http://www.w3.org/2000/svg">
<path d="M0 20C0 8.9543 8.9543 0 20 0C31.0457 0 40 8.9543 40 20C40 31.0457 31.0457 40 20 40C8.9543 40 0 31.0457 0 20Z" fill="#0077B5"/>
<path fill-rule="evenodd" clip-rule="evenodd" d="M14.433 12.3522C14.433 13.6598 13.4487 14.7061 11.8683 14.7061H11.8393C10.3177 14.7061 9.33398 13.6598 9.33398 12.3522C9.33398 11.017 10.3477 10 11.8982 10C13.4487 10 14.4035 11.017 14.433 12.3522ZM14.1344 16.5648V30.1829H9.60201V16.5648H14.1344ZM30.4799 30.183L30.4801 22.3748C30.4801 18.1919 28.2441 16.2451 25.2616 16.2451C22.8552 16.2451 21.7778 17.5669 21.1762 18.4941V16.5652H16.6432C16.703 17.8431 16.6432 30.1833 16.6432 30.1833H21.1762V22.5779C21.1762 22.1709 21.2056 21.7648 21.3255 21.4734C21.653 20.6604 22.3989 19.8185 23.6511 19.8185C25.2918 19.8185 25.9477 21.0673 25.9477 22.8973V30.183H30.4799Z" fill="white"/>
</svg>
