<svg width="136" height="31" viewBox="0 0 136 31" fill="none" xmlns="http://www.w3.org/2000/svg">
<path fill-rule="evenodd" clip-rule="evenodd" d="M2.97181 5.32512C2.97326 4.59064 3.27138 3.88667 3.80084 3.36743C4.3303 2.8482 5.04793 2.55605 5.79652 2.55498H26.5384C27.287 2.55605 28.0046 2.8482 28.5341 3.36743C29.0636 3.88667 29.3617 4.59064 29.3631 5.32512V10.2347L31.9672 7.69722V5.32512C31.9654 3.91312 31.3928 2.55949 30.375 1.56118C29.3573 0.562875 27.9775 0.00142334 26.5384 0L5.79652 0C4.35764 0.00177916 2.97822 0.563388 1.96079 1.56166C0.943348 2.55993 0.370954 3.91336 0.369141 5.32512V20.4237L2.97319 17.8687L2.97181 5.32512Z" fill="#07C168"/>
<path d="M17.8413 16.0464H14.8672V18.9644H17.8413V16.0464Z" fill="#07C168"/>
<path d="M21.5561 15.9094H18.582V18.8274H21.5561V15.9094Z" fill="#07C168"/>
<path d="M17.8413 19.6936H14.8672V22.6117H17.8413V19.6936Z" fill="#07C168"/>
<path d="M21.5561 19.6936H18.582V22.6117H21.5561V19.6936Z" fill="#07C168"/>
<path fill-rule="evenodd" clip-rule="evenodd" d="M37.5531 3.02563L34.1075 3.99115L35.8892 5.68416L27.5042 13.8588L18.0255 4.92304L12.2692 10.5709V8.38841H9.29096V13.4984L0 22.6116L0.22477 26.7681L2.22989 24.7995V25.6749C2.2317 27.0866 2.80409 28.4401 3.82153 29.4383C4.83897 30.4366 6.21839 30.9982 7.65726 31H28.3964C29.8353 30.9982 31.2147 30.4366 32.2322 29.4383C33.2496 28.4401 33.822 27.0866 33.8238 25.6749V11.1801L37.5914 7.30052L39.258 8.88327L40.1297 5.47169L41 2.06012L37.5531 3.02563ZM31.2211 25.6749C31.2204 26.4098 30.9226 27.1145 30.3931 27.6343C29.8635 28.1541 29.1455 28.4466 28.3964 28.4477H7.65452C6.90546 28.4466 6.18741 28.1541 5.65787 27.6343C5.12833 27.1145 4.83054 26.4098 4.82982 25.6749V22.2472L18.2119 9.11725L27.5042 17.6885L31.2211 13.8601V25.6749Z" fill="#07C168"/>
<path d="M50.264 8.92607V13.6781H54.752V15.8381H50.264V22.7261H48.2V6.76607H56.936V8.92607H50.264ZM63.2551 13.0301C62.8711 12.8541 62.5271 12.7661 62.2231 12.7661C61.5831 12.7661 61.0551 12.9901 60.6391 13.4381C60.1911 13.9181 59.9671 14.4701 59.9671 15.0941V22.7261H57.9031V15.0941C57.9031 14.2301 58.1191 13.4381 58.5511 12.7181C58.9991 11.9981 59.6071 11.4381 60.3751 11.0381C60.9511 10.7661 61.5671 10.6301 62.2231 10.6301C62.7511 10.6301 63.2551 10.7261 63.7351 10.9181C64.2151 11.1101 64.7191 11.4221 65.2471 11.8541L63.2551 13.0301ZM74.9825 22.7261V20.9021C74.4705 21.4941 73.8785 21.9661 73.2065 22.3181C72.5345 22.6701 71.8225 22.8461 71.0705 22.8461C70.2385 22.8461 69.4545 22.6941 68.7185 22.3901C67.9985 22.0861 67.3585 21.6541 66.7985 21.0941C66.2385 20.5501 65.7985 19.9101 65.4785 19.1741C65.1745 18.4221 65.0225 17.6381 65.0225 16.8221C65.0225 16.0061 65.1745 15.2301 65.4785 14.4941C65.7985 13.7421 66.2385 13.0861 66.7985 12.5261C67.3585 11.9661 67.9985 11.5341 68.7185 11.2301C69.4545 10.9261 70.2385 10.7741 71.0705 10.7741C71.8385 10.7741 72.5585 10.9341 73.2305 11.2541C73.9185 11.5741 74.5025 12.0221 74.9825 12.5981V11.0141H77.1425V22.7261H74.9825ZM71.0705 12.9101C70.5425 12.9101 70.0305 13.0141 69.5345 13.2221C69.0545 13.4141 68.6385 13.6861 68.2865 14.0381C67.9345 14.3901 67.6545 14.8141 67.4465 15.3101C67.2545 15.7901 67.1585 16.2941 67.1585 16.8221C67.1585 17.3501 67.2545 17.8541 67.4465 18.3341C67.6545 18.8141 67.9345 19.2301 68.2865 19.5821C68.6385 19.9341 69.0545 20.2141 69.5345 20.4221C70.0305 20.6141 70.5425 20.7101 71.0705 20.7101C71.5985 20.7101 72.1025 20.6141 72.5825 20.4221C73.0625 20.2141 73.4785 19.9341 73.8305 19.5821C74.1825 19.2301 74.4545 18.8141 74.6465 18.3341C74.8545 17.8541 74.9585 17.3501 74.9585 16.8221C74.9585 16.2941 74.8545 15.7901 74.6465 15.3101C74.4545 14.8141 74.1825 14.3901 73.8305 14.0381C73.4785 13.6861 73.0625 13.4141 72.5825 13.2221C72.1025 13.0141 71.5985 12.9101 71.0705 12.9101ZM84.8752 27.8381C82.9712 27.8381 81.3232 26.9901 79.9312 25.2941L81.8272 24.1661C82.6912 25.1741 83.7072 25.6781 84.8752 25.6781C85.4032 25.6781 85.9072 25.5741 86.3872 25.3661C86.8672 25.1581 87.2832 24.8701 87.6352 24.5021C87.9872 24.1341 88.2592 23.7101 88.4512 23.2301C88.6592 22.7501 88.7632 22.2461 88.7632 21.7181V21.1421C87.6752 22.3581 86.3712 22.9661 84.8512 22.9661C84.0352 22.9661 83.2512 22.7981 82.4992 22.4621C81.7632 22.1101 81.1232 21.6381 80.5792 21.0461C80.0352 20.4541 79.6032 19.7821 79.2832 19.0301C78.9792 18.2781 78.8272 17.5021 78.8272 16.7021C78.8272 15.8861 78.9792 15.1181 79.2832 14.3981C79.6032 13.6621 80.0432 13.0141 80.6032 12.4541C81.1632 11.9101 81.8032 11.4861 82.5232 11.1821C83.2592 10.8781 84.0352 10.7261 84.8512 10.7261C85.7312 10.7261 86.5152 10.9181 87.2032 11.3021C87.8912 11.6861 88.4112 12.1181 88.7632 12.5981V10.9421H90.9232V21.7181C90.9232 22.5501 90.7632 23.3341 90.4432 24.0701C90.1392 24.8061 89.7072 25.4621 89.1472 26.0381C88.6032 26.5981 87.9552 27.0381 87.2032 27.3581C86.4672 27.6781 85.6912 27.8381 84.8752 27.8381ZM84.8512 12.9101C84.3232 12.9101 83.8192 13.0141 83.3392 13.2221C82.8592 13.4141 82.4432 13.6941 82.0912 14.0621C81.7392 14.4301 81.4592 14.8621 81.2512 15.3581C81.0432 15.8381 80.9392 16.3421 80.9392 16.8701C80.9392 17.3981 81.0432 17.9101 81.2512 18.4061C81.4592 18.8861 81.7392 19.3021 82.0912 19.6541C82.4432 20.0061 82.8592 20.2861 83.3392 20.4941C83.8192 20.7021 84.3232 20.8061 84.8512 20.8061C85.3792 20.8061 85.8832 20.7021 86.3632 20.4941C86.8432 20.2861 87.2592 20.0061 87.6112 19.6541C87.9632 19.3021 88.2352 18.8861 88.4272 18.4061C88.6352 17.9101 88.7392 17.3981 88.7392 16.8701C88.7392 16.3421 88.6352 15.8381 88.4272 15.3581C88.2352 14.8621 87.9632 14.4301 87.6112 14.0621C87.2592 13.6941 86.8432 13.4141 86.3632 13.2221C85.8832 13.0141 85.3792 12.9101 84.8512 12.9101ZM99.8452 22.7261H97.8052L93.0772 10.7261H95.3572L98.8372 19.4861L102.293 10.7261H104.573L99.8452 22.7261ZM107.358 17.6381C107.358 18.0221 107.494 18.4221 107.766 18.8381C108.054 19.2541 108.382 19.6061 108.75 19.8941C109.422 20.4221 110.206 20.6861 111.102 20.6861C112.526 20.6861 113.686 19.9981 114.582 18.6221L116.406 19.7021C115.782 20.7101 115.014 21.4861 114.102 22.0301C113.19 22.5741 112.19 22.8461 111.102 22.8461C110.286 22.8461 109.51 22.6941 108.774 22.3901C108.038 22.0701 107.39 21.6301 106.83 21.0701C106.27 20.5101 105.83 19.8621 105.51 19.1261C105.206 18.3901 105.054 17.6141 105.054 16.7981C105.054 15.9821 105.206 15.2061 105.51 14.4701C105.83 13.7181 106.27 13.0621 106.83 12.5021C107.374 11.9421 108.014 11.5101 108.75 11.2061C109.502 10.9021 110.286 10.7501 111.102 10.7501C111.918 10.7501 112.694 10.9021 113.43 11.2061C114.182 11.5101 114.83 11.9421 115.374 12.5021C116.558 13.7181 117.15 15.1261 117.15 16.7261C117.15 17.0141 117.126 17.3181 117.078 17.6381H107.358ZM111.102 12.7181C110.446 12.7181 109.83 12.8621 109.254 13.1501C108.678 13.4381 108.214 13.8221 107.862 14.3021C107.526 14.7661 107.358 15.2621 107.358 15.7901H114.846C114.846 15.2621 114.67 14.7661 114.318 14.3021C113.982 13.8221 113.526 13.4381 112.95 13.1501C112.374 12.8621 111.758 12.7181 111.102 12.7181ZM125.123 14.3021C125.075 14.0141 124.971 13.7421 124.811 13.4861C124.507 12.9581 123.907 12.6941 123.011 12.6941C122.531 12.6941 122.163 12.7501 121.907 12.8621C121.571 12.9901 121.315 13.1741 121.139 13.4141C120.979 13.6541 120.899 13.9181 120.899 14.2061C120.899 14.5581 121.027 14.8781 121.283 15.1661C121.555 15.4701 121.995 15.6301 122.603 15.6461C123.675 15.6941 124.539 15.8221 125.195 16.0301C125.867 16.2381 126.379 16.5981 126.731 17.1101C127.099 17.6221 127.283 18.3421 127.283 19.2701C127.283 20.2141 126.923 21.0301 126.203 21.7181C125.851 22.0541 125.435 22.3261 124.955 22.5341C124.491 22.7421 124.003 22.8461 123.491 22.8461H123.131C121.851 22.8461 120.819 22.4781 120.035 21.7421C119.395 21.1501 118.995 20.3181 118.835 19.2461H120.971C121.051 19.6301 121.211 19.9421 121.451 20.1821C121.819 20.5341 122.331 20.7101 122.987 20.7101C123.163 20.7101 123.291 20.7021 123.371 20.6861C123.931 20.6541 124.371 20.5021 124.691 20.2301C125.011 19.9421 125.171 19.5901 125.171 19.1741C125.171 18.5981 124.995 18.2221 124.643 18.0461C124.291 17.8701 123.611 17.7821 122.603 17.7821C121.339 17.7821 120.371 17.3821 119.699 16.5821C119.155 15.9741 118.883 15.2061 118.883 14.2781C118.883 14.0701 118.891 13.9101 118.907 13.7981C119.035 12.7581 119.459 11.9661 120.179 11.4221C120.915 10.8621 121.883 10.5821 123.083 10.5821C123.963 10.5821 124.731 10.7741 125.387 11.1581C125.851 11.4461 126.251 11.8461 126.587 12.3581C126.907 12.8701 127.115 13.5101 127.211 14.2781L127.163 14.3021H125.123ZM133.034 12.8861V22.7261H130.994V12.8861H129.194V10.7261H130.994V6.76607H133.034V10.7261H134.834V12.8861H133.034Z" fill="white"/>
</svg>
